STARTFONT 2.1
COMMENT Copyright (C) 1990-1991 EWT Consulting
COMMENT Portions Copyright (C) 1994-1995 Cronyx Ltd.
COMMENT Changes Copyright (C) 1996-1997 by Andrey A. Chernov, Moscow, Russia.
COMMENT Modified by Serge Vakulenko, <vak@cronyx.ru>
COMMENT This software may be used, modified, copied, distributed, and sold,
COMMENT in both source and binary form provided that the copyright
COMMENT and these terms are retained. Under no circumstances is the author
COMMENT responsible for the proper functioning of this software, nor does
COMMENT the author assume any responsibility for damages incurred with its use.
COMMENT $XFree86: xc/fonts/bdf/cyrillic/crox2tbo.bdf,v 3.2.4.1 1998/02/01 16:03:39 robin Exp $
FONT -Cronyx-Times-Bold-I-Normal--14-100-100-100-P-54-KOI8-R
SIZE 10 96 96
FONTBOUNDINGBOX 19 15 -1 -3
STARTPROPERTIES 20
DEFAULT_CHAR 32
FONT_ASCENT 13
FONT_DESCENT 3
SPACING "P"
FONTNAME_REGISTRY ""
FOUNDRY "Cronyx"
FAMILY_NAME "Times"
WEIGHT_NAME "Bold"
SLANT "I"
SETWIDTH_NAME "Normal"
ADD_STYLE_NAME ""
AVERAGE_WIDTH 54
CHARSET_REGISTRY "KOI8"
CHARSET_ENCODING "R"
PIXEL_SIZE 14
POINT_SIZE 100
RESOLUTION_X 100
RESOLUTION_Y 100
COPYRIGHT "Copyright (C) 1990, 1991 EWT Consulting, Portions Copyright (C) 1994 Cronyx Ltd., Portions Copyright (C) 1996-1997 by Andrey A. Chernov, Moscow, Russia."
_XMBDFED_INFO "Edited with xmbdfed 2.7."
ENDPROPERTIES
CHARS 165
STARTCHAR space
ENCODING 32
SWIDTH 308 0
DWIDTH 4 0
BBX 0 0 -1 0
BITMAP
ENDCHAR
STARTCHAR exclam
ENCODING 33
SWIDTH 400 0
DWIDTH 4 0
BBX 5 10 0 0
BITMAP
18
18
30
30
30
60
60
00
00
C0
ENDCHAR
STARTCHAR quotedbl
ENCODING 34
SWIDTH 2000 0
DWIDTH 6 0
BBX 5 3 0 7
BITMAP
78
F0
F0
ENDCHAR
STARTCHAR numbersign
ENCODING 35
SWIDTH 800 0
DWIDTH 8 0
BBX 11 10 -1 0
BITMAP
03C0
03C0
0780
1FC0
0F00
1E00
7F00
3C00
7800
7800
ENDCHAR
STARTCHAR dollar
ENCODING 36
SWIDTH 538 0
DWIDTH 7 0
BBX 9 13 0 -2
BITMAP
0300
0300
0E00
1B00
1B00
3000
1C00
0600
0C00
6C00
3800
6000
6000
ENDCHAR
STARTCHAR percent
ENCODING 37
SWIDTH 1300 0
DWIDTH 13 0
BBX 14 10 0 0
BITMAP
0E0C
1B18
3660
1CC0
0180
0600
0CE0
19B0
6360
C1C0
ENDCHAR
STARTCHAR ampersand
ENCODING 38
SWIDTH 1100 0
DWIDTH 11 0
BBX 12 10 0 0
BITMAP
0600
0F00
1E00
1E00
0DE0
3D80
6780
6300
CF00
7980
ENDCHAR
STARTCHAR quoteright
ENCODING 39
SWIDTH 1333 0
DWIDTH 4 0
BBX 3 3 0 7
BITMAP
60
C0
C0
ENDCHAR
STARTCHAR parenleft
ENCODING 40
SWIDTH 385 0
DWIDTH 5 0
BBX 7 13 0 -3
BITMAP
06
06
18
18
18
30
30
30
60
60
60
60
60
ENDCHAR
STARTCHAR parenright
ENCODING 41
SWIDTH 385 0
DWIDTH 5 0
BBX 7 13 0 -3
BITMAP
0C
0C
0C
0C
0C
18
18
18
30
30
30
C0
C0
ENDCHAR
STARTCHAR asterisk
ENCODING 42
SWIDTH 1600 0
DWIDTH 8 0
BBX 7 5 0 5
BITMAP
18
7E
3C
FC
30
ENDCHAR
STARTCHAR plus
ENCODING 43
SWIDTH 1600 0
DWIDTH 8 0
BBX 7 5 0 2
BITMAP
18
18
7E
30
30
ENDCHAR
STARTCHAR comma
ENCODING 44
SWIDTH 1333 0
DWIDTH 4 0
BBX 4 3 -1 -2
BITMAP
30
60
C0
ENDCHAR
STARTCHAR minus
ENCODING 45
SWIDTH 5000 0
DWIDTH 5 0
BBX 5 1 -1 4
BITMAP
F8
ENDCHAR
STARTCHAR period
ENCODING 46
SWIDTH 4000 0
DWIDTH 4 0
BBX 2 1 0 0
BITMAP
C0
ENDCHAR
STARTCHAR slash
ENCODING 47
SWIDTH 417 0
DWIDTH 5 0
BBX 9 12 -1 -2
BITMAP
0180
0300
0300
0600
0C00
0C00
1800
3000
3000
6000
C000
C000
ENDCHAR
STARTCHAR zero
ENCODING 48
SWIDTH 700 0
DWIDTH 7 0
BBX 8 10 0 0
BITMAP
0E
1B
36
36
36
6C
6C
6C
D8
70
ENDCHAR
STARTCHAR one
ENCODING 49
SWIDTH 700 0
DWIDTH 7 0
BBX 7 10 1 0
BITMAP
0C
1C
18
18
18
30
30
30
60
F0
ENDCHAR
STARTCHAR two
ENCODING 50
SWIDTH 700 0
DWIDTH 7 0
BBX 8 10 0 0
BITMAP
0E
1B
06
06
0C
18
30
30
D8
F8
ENDCHAR
STARTCHAR three
ENCODING 51
SWIDTH 700 0
DWIDTH 7 0
BBX 8 10 0 0
BITMAP
0E
1B
06
06
1C
0C
0C
0C
D8
70
ENDCHAR
STARTCHAR four
ENCODING 52
SWIDTH 700 0
DWIDTH 7 0
BBX 8 10 0 0
BITMAP
03
07
0E
1E
1E
6C
7C
0C
18
18
ENDCHAR
STARTCHAR five
ENCODING 53
SWIDTH 700 0
DWIDTH 7 0
BBX 8 10 0 0
BITMAP
1F
18
30
30
3C
0C
0C
0C
D8
70
ENDCHAR
STARTCHAR six
ENCODING 54
SWIDTH 700 0
DWIDTH 7 0
BBX 8 10 0 0
BITMAP
07
0C
30
30
3C
6C
6C
6C
D8
70
ENDCHAR
STARTCHAR seven
ENCODING 55
SWIDTH 700 0
DWIDTH 7 0
BBX 8 10 0 0
BITMAP
1F
1B
06
0C
0C
18
30
30
60
60
ENDCHAR
STARTCHAR eight
ENCODING 56
SWIDTH 700 0
DWIDTH 7 0
BBX 8 10 0 0
BITMAP
0E
1B
36
36
1C
6C
6C
6C
D8
70
ENDCHAR
STARTCHAR nine
ENCODING 57
SWIDTH 700 0
DWIDTH 7 0
BBX 8 10 0 0
BITMAP
0E
1B
36
36
36
3C
0C
0C
30
E0
ENDCHAR
STARTCHAR colon
ENCODING 58
SWIDTH 667 0
DWIDTH 4 0
BBX 4 6 0 0
BITMAP
30
00
00
00
00
C0
ENDCHAR
STARTCHAR semicolon
ENCODING 59
SWIDTH 500 0
DWIDTH 4 0
BBX 5 8 -1 -2
BITMAP
18
00
00
00
00
30
60
C0
ENDCHAR
STARTCHAR less
ENCODING 60
SWIDTH 889 0
DWIDTH 8 0
BBX 9 9 0 0
BITMAP
0180
0600
0C00
1800
6000
3000
1800
1800
0C00
ENDCHAR
STARTCHAR equal
ENCODING 61
SWIDTH 2000 0
DWIDTH 8 0
BBX 7 4 0 3
BITMAP
7E
00
00
FC
ENDCHAR
STARTCHAR greater
ENCODING 62
SWIDTH 889 0
DWIDTH 8 0
BBX 9 9 0 0
BITMAP
1800
1800
0C00
0600
0600
0C00
1800
6000
C000
ENDCHAR
STARTCHAR question
ENCODING 63
SWIDTH 700 0
DWIDTH 7 0
BBX 8 10 0 0
BITMAP
0E
1B
06
06
0C
30
30
00
00
60
ENDCHAR
STARTCHAR at
ENCODING 64
SWIDTH 1300 0
DWIDTH 13 0
BBX 14 10 0 0
BITMAP
07F0
0C18
33D8
36D8
36D8
6DB0
6DB0
67B0
61C0
3C00
ENDCHAR
STARTCHAR A
ENCODING 65
SWIDTH 1000 0
DWIDTH 10 0
BBX 13 10 -1 0
BITMAP
0180
0180
0780
0780
0CC0
1980
1F80
30C0
6180
F3C0
ENDCHAR
STARTCHAR B
ENCODING 66
SWIDTH 1000 0
DWIDTH 10 0
BBX 11 10 0 0
BITMAP
1FC0
0C60
18C0
18C0
1F80
3180
3180
3180
6300
FE00
ENDCHAR
STARTCHAR C
ENCODING 67
SWIDTH 1100 0
DWIDTH 11 0
BBX 12 10 0 0
BITMAP
07F0
0C70
3060
3000
3000
6000
6000
60C0
6300
3E00
ENDCHAR
STARTCHAR D
ENCODING 68
SWIDTH 1100 0
DWIDTH 11 0
BBX 12 10 0 0
BITMAP
1F80
0CE0
18C0
1860
1860
30C0
30C0
3180
6700
FC00
ENDCHAR
STARTCHAR E
ENCODING 69
SWIDTH 900 0
DWIDTH 9 0
BBX 10 10 0 0
BITMAP
1FC0
0CC0
1800
1B00
1F00
3600
3000
3000
6600
FE00
ENDCHAR
STARTCHAR F
ENCODING 70
SWIDTH 900 0
DWIDTH 9 0
BBX 10 10 0 0
BITMAP
1FC0
0CC0
1800
1B00
1F00
3600
3000
3000
6000
F000
ENDCHAR
STARTCHAR G
ENCODING 71
SWIDTH 1100 0
DWIDTH 11 0
BBX 13 10 0 0
BITMAP
07F0
0C70
3060
3000
3000
61E0
60C0
60C0
6180
3F00
ENDCHAR
STARTCHAR H
ENCODING 72
SWIDTH 1100 0
DWIDTH 11 0
BBX 12 10 0 0
BITMAP
1EF0
0C60
18C0
18C0
1FC0
3180
3180
3180
6300
F780
ENDCHAR
STARTCHAR I
ENCODING 73
SWIDTH 600 0
DWIDTH 6 0
BBX 7 10 0 0
BITMAP
1E
0C
18
18
18
30
30
30
60
F0
ENDCHAR
STARTCHAR J
ENCODING 74
SWIDTH 800 0
DWIDTH 8 0
BBX 9 10 0 0
BITMAP
0780
0300
0600
0600
0600
0C00
0C00
0C00
D800
F000
ENDCHAR
STARTCHAR K
ENCODING 75
SWIDTH 1000 0
DWIDTH 10 0
BBX 12 10 0 0
BITMAP
1FE0
0CC0
1B00
1E00
1C00
3C00
3600
3300
6300
F780
ENDCHAR
STARTCHAR L
ENCODING 76
SWIDTH 1000 0
DWIDTH 10 0
BBX 11 10 0 0
BITMAP
1E00
0C00
1800
1800
1800
3000
3000
3000
6300
FF00
ENDCHAR
STARTCHAR M
ENCODING 77
SWIDTH 1200 0
DWIDTH 12 0
BBX 13 10 0 0
BITMAP
1C38
0E70
1CE0
1CE0
1FE0
3FC0
3FC0
36C0
6D80
FFC0
ENDCHAR
STARTCHAR N
ENCODING 78
SWIDTH 1100 0
DWIDTH 11 0
BBX 12 10 0 0
BITMAP
1CF0
0E60
1CC0
1EC0
1EC0
3780
3780
3380
6700
F300
ENDCHAR
STARTCHAR O
ENCODING 79
SWIDTH 1100 0
DWIDTH 11 0
BBX 12 10 0 0
BITMAP
07C0
0C60
3060
3060
3060
60C0
60C0
60C0
6300
3E00
ENDCHAR
STARTCHAR P
ENCODING 80
SWIDTH 900 0
DWIDTH 9 0
BBX 10 10 0 0
BITMAP
1F80
0CC0
1980
1980
1980
3E00
3000
3000
6000
F000
ENDCHAR
STARTCHAR Q
ENCODING 81
SWIDTH 917 0
DWIDTH 11 0
BBX 13 12 0 -2
BITMAP
03E0
0C60
1830
1830
3060
3060
3060
60C0
3180
1F00
0E00
0700
ENDCHAR
STARTCHAR R
ENCODING 82
SWIDTH 1100 0
DWIDTH 11 0
BBX 12 10 0 0
BITMAP
1F80
0CC0
1980
1980
1980
3E00
3600
3300
6300
F380
ENDCHAR
STARTCHAR S
ENCODING 83
SWIDTH 800 0
DWIDTH 8 0
BBX 9 10 0 0
BITMAP
0F80
1B80
3300
3000
1C00
0C00
0600
6600
EC00
F800
ENDCHAR
STARTCHAR T
ENCODING 84
SWIDTH 1200 0
DWIDTH 12 0
BBX 13 10 0 0
BITMAP
1FF8
1998
0300
0300
0300
0600
0600
0600
0C00
1E00
ENDCHAR
STARTCHAR U
ENCODING 85
SWIDTH 1100 0
DWIDTH 11 0
BBX 12 10 0 0
BITMAP
1EF0
0C60
18C0
18C0
18C0
3180
3180
3180
6300
3E00
ENDCHAR
STARTCHAR V
ENCODING 86
SWIDTH 1000 0
DWIDTH 10 0
BBX 13 10 -1 0
BITMAP
1E78
0C30
1860
0CC0
0CC0
0F00
0F00
0F00
0C00
0C00
ENDCHAR
STARTCHAR W
ENCODING 87
SWIDTH 1400 0
DWIDTH 14 0
BBX 17 10 -1 0
BITMAP
1FFF80
0CF300
19E600
0CCC00
0CCC00
0FF000
0FF000
0FF000
0CC000
0CC000
ENDCHAR
STARTCHAR X
ENCODING 88
SWIDTH 1100 0
DWIDTH 11 0
BBX 14 10 -1 0
BITMAP
1E3C
0C18
0C60
06C0
0380
0700
0D80
18C0
60C0
F1E0
ENDCHAR
STARTCHAR Y
ENCODING 89
SWIDTH 1000 0
DWIDTH 10 0
BBX 13 10 -1 0
BITMAP
1E78
0C30
0CC0
0CC0
0780
0600
0600
0600
0C00
1E00
ENDCHAR
STARTCHAR Z
ENCODING 90
SWIDTH 900 0
DWIDTH 9 0
BBX 12 10 -1 0
BITMAP
1FF0
1860
0180
0180
0300
0C00
1800
1800
6180
FF80
ENDCHAR
STARTCHAR bracketleft
ENCODING 91
SWIDTH 385 0
DWIDTH 5 0
BBX 7 13 0 -3
BITMAP
0E
0C
18
18
18
30
30
30
60
60
60
C0
E0
ENDCHAR
STARTCHAR backslash
ENCODING 92
SWIDTH 417 0
DWIDTH 5 0
BBX 9 12 -1 -2
BITMAP
0C00
1800
1800
0C00
1800
1800
0C00
1800
1800
0C00
1800
1800
ENDCHAR
STARTCHAR bracketright
ENCODING 93
SWIDTH 385 0
DWIDTH 5 0
BBX 7 13 0 -3
BITMAP
0E
06
0C
0C
0C
18
18
18
30
30
30
60
E0
ENDCHAR
STARTCHAR asciicircum
ENCODING 94
SWIDTH 2667 0
DWIDTH 8 0
BBX 7 3 0 8
BITMAP
18
78
CC
ENDCHAR
STARTCHAR underscore
ENCODING 95
SWIDTH 7000 0
DWIDTH 7 0
BBX 7 1 -1 -3
BITMAP
FE
ENDCHAR
STARTCHAR quoteleft
ENCODING 96
SWIDTH 1667 0
DWIDTH 5 0
BBX 5 3 -1 8
BITMAP
60
60
30
ENDCHAR
STARTCHAR a
ENCODING 97
SWIDTH 1000 0
DWIDTH 7 0
BBX 8 7 0 0
BITMAP
1C
06
3C
6C
6C
D8
7C
ENDCHAR
STARTCHAR b
ENCODING 98
SWIDTH 800 0
DWIDTH 8 0
BBX 10 10 0 0
BITMAP
1C00
0C00
1800
1F00
1D80
3300
3300
3300
6600
3C00
ENDCHAR
STARTCHAR c
ENCODING 99
SWIDTH 1000 0
DWIDTH 7 0
BBX 8 7 0 0
BITMAP
1E
33
60
60
60
CC
78
ENDCHAR
STARTCHAR d
ENCODING 100
SWIDTH 700 0
DWIDTH 7 0
BBX 9 10 0 0
BITMAP
0380
0180
0300
1F00
3300
6600
6600
6600
CC00
7C00
ENDCHAR
STARTCHAR e
ENCODING 101
SWIDTH 1000 0
DWIDTH 7 0
BBX 8 7 0 0
BITMAP
1E
33
66
7E
60
CC
78
ENDCHAR
STARTCHAR f
ENCODING 102
SWIDTH 600 0
DWIDTH 6 0
BBX 8 10 0 0
BITMAP
07
0C
18
3C
18
30
30
30
60
70
ENDCHAR
STARTCHAR g
ENCODING 103
SWIDTH 800 0
DWIDTH 8 0
BBX 10 10 0 -3
BITMAP
0FC0
1980
3300
3300
1E00
6000
3E00
6300
C600
7C00
ENDCHAR
STARTCHAR h
ENCODING 104
SWIDTH 800 0
DWIDTH 8 0
BBX 11 10 -1 0
BITMAP
1C00
0C00
1800
1F00
1D80
3300
3300
3300
6600
7700
ENDCHAR
STARTCHAR i
ENCODING 105
SWIDTH 500 0
DWIDTH 5 0
BBX 7 10 0 0
BITMAP
0C
00
00
38
18
30
30
30
60
70
ENDCHAR
STARTCHAR j
ENCODING 106
SWIDTH 385 0
DWIDTH 5 0
BBX 7 13 0 -3
BITMAP
06
00
00
1C
0C
18
18
18
30
30
30
60
C0
ENDCHAR
STARTCHAR k
ENCODING 107
SWIDTH 800 0
DWIDTH 8 0
BBX 11 10 -1 0
BITMAP
1C00
0C00
1800
1B80
1B00
3C00
3C00
3600
6600
7700
ENDCHAR
STARTCHAR l
ENCODING 108
SWIDTH 400 0
DWIDTH 4 0
BBX 7 10 -1 0
BITMAP
1C
0C
18
18
18
30
30
30
60
70
ENDCHAR
STARTCHAR m
ENCODING 109
SWIDTH 1429 0
DWIDTH 10 0
BBX 12 7 -1 0
BITMAP
3EC0
1FE0
36C0
36C0
36C0
6D80
7FC0
ENDCHAR
STARTCHAR n
ENCODING 110
SWIDTH 1143 0
DWIDTH 8 0
BBX 10 7 -1 0
BITMAP
3F00
1D80
3300
3300
3300
6600
7700
ENDCHAR
STARTCHAR o
ENCODING 111
SWIDTH 1000 0
DWIDTH 7 0
BBX 8 7 0 0
BITMAP
1E
33
66
66
66
CC
78
ENDCHAR
STARTCHAR p
ENCODING 112
SWIDTH 800 0
DWIDTH 8 0
BBX 10 10 0 -3
BITMAP
1F80
0EC0
1980
1980
1980
3300
3E00
3000
6000
F000
ENDCHAR
STARTCHAR q
ENCODING 113
SWIDTH 800 0
DWIDTH 8 0
BBX 10 10 0 -3
BITMAP
0F80
1980
3300
3300
3300
6600
3E00
0600
0C00
1E00
ENDCHAR
STARTCHAR r
ENCODING 114
SWIDTH 857 0
DWIDTH 6 0
BBX 7 7 0 0
BITMAP
3E
1C
30
30
30
60
70
ENDCHAR
STARTCHAR s
ENCODING 115
SWIDTH 714 0
DWIDTH 5 0
BBX 6 7 0 0
BITMAP
1C
30
60
30
18
30
E0
ENDCHAR
STARTCHAR t
ENCODING 116
SWIDTH 556 0
DWIDTH 5 0
BBX 7 9 0 0
BITMAP
0C
18
3C
18
30
30
30
60
30
ENDCHAR
STARTCHAR u
ENCODING 117
SWIDTH 1143 0
DWIDTH 8 0
BBX 10 7 -1 0
BITMAP
3B80
1980
3300
3300
3300
6E00
3F00
ENDCHAR
STARTCHAR v
ENCODING 118
SWIDTH 1143 0
DWIDTH 8 0
BBX 10 7 -1 0
BITMAP
3FC0
1980
3300
1E00
1E00
1800
1800
ENDCHAR
STARTCHAR w
ENCODING 119
SWIDTH 1429 0
DWIDTH 10 0
BBX 12 7 -1 0
BITMAP
3FF0
3330
6660
3FC0
3FC0
3300
3300
ENDCHAR
STARTCHAR x
ENCODING 120
SWIDTH 1143 0
DWIDTH 8 0
BBX 10 7 -1 0
BITMAP
3FC0
1980
1E00
0C00
1E00
6600
FF00
ENDCHAR
STARTCHAR y
ENCODING 121
SWIDTH 800 0
DWIDTH 8 0
BBX 11 10 -1 -3
BITMAP
1FE0
0CC0
1980
0F00
0F00
0C00
0C00
1800
F000
E000
ENDCHAR
STARTCHAR z
ENCODING 122
SWIDTH 1000 0
DWIDTH 7 0
BBX 8 7 0 0
BITMAP
3F
33
0C
18
30
CC
FC
ENDCHAR
STARTCHAR braceleft
ENCODING 123
SWIDTH 462 0
DWIDTH 6 0
BBX 8 13 0 -3
BITMAP
03
06
0C
0C
0C
18
30
18
30
30
30
60
30
ENDCHAR
STARTCHAR bar
ENCODING 124
SWIDTH 308 0
DWIDTH 4 0
BBX 6 13 0 -3
BITMAP
0C
0C
18
18
18
30
30
30
60
60
60
C0
C0
ENDCHAR
STARTCHAR braceright
ENCODING 125
SWIDTH 462 0
DWIDTH 6 0
BBX 8 13 0 -3
BITMAP
0C
06
0C
0C
0C
18
0C
18
30
30
30
60
C0
ENDCHAR
STARTCHAR asciitilde
ENCODING 126
SWIDTH 4500 0
DWIDTH 9 0
BBX 7 2 0 8
BITMAP
76
DC
ENDCHAR
STARTCHAR nbsp
ENCODING 154
SWIDTH 308 0
DWIDTH 4 0
BBX 0 0 -1 0
BITMAP
ENDCHAR
STARTCHAR degree
ENCODING 156
SWIDTH 1667 0
DWIDTH 5 0
BBX 5 3 0 7
BITMAP
30
F0
60
ENDCHAR
STARTCHAR twosuperior
ENCODING 157
SWIDTH 667 0
DWIDTH 4 0
BBX 6 6 -1 4
BITMAP
18
78
18
30
C0
F0
ENDCHAR
STARTCHAR cyr-yo
ENCODING 163
SWIDTH 667 0
DWIDTH 6 0
BBX 9 9 0 0
BITMAP
1F80
0000
1E00
3300
6600
7E00
6000
CC00
7800
ENDCHAR
STARTCHAR cyr-Yo
ENCODING 179
SWIDTH 583 0
DWIDTH 7 0
BBX 11 12 0 0
BITMAP
07E0
0000
1FC0
0CC0
1800
1B00
1F00
3600
3000
3000
6600
FE00
ENDCHAR
STARTCHAR copyright
ENCODING 191
SWIDTH 1200 0
DWIDTH 12 0
BBX 13 10 0 0
BITMAP
07E0
0C30
37B0
3CF0
3C30
7860
79E0
6F60
6180
3F00
ENDCHAR
STARTCHAR cyr-yu
ENCODING 192
SWIDTH 1571 0
DWIDTH 11 0
BBX 12 7 0 0
BITMAP
3DE0
1B30
3660
3E60
3660
6CC0
F780
ENDCHAR
STARTCHAR cyr-a
ENCODING 193
SWIDTH 1143 0
DWIDTH 8 0
BBX 9 7 0 0
BITMAP
1E00
0300
3E00
6600
6600
CC00
7E00
ENDCHAR
STARTCHAR cyr-be
ENCODING 194
SWIDTH 636 0
DWIDTH 7 0
BBX 9 11 0 0
BITMAP
0180
0F00
1800
3000
3E00
3B00
6600
6600
6600
CC00
7800
ENDCHAR
STARTCHAR cyr-tse
ENCODING 195
SWIDTH 1000 0
DWIDTH 9 0
BBX 11 9 0 -2
BITMAP
1FE0
1980
1980
1980
3300
3300
7F80
0300
0300
ENDCHAR
STARTCHAR cyr-de
ENCODING 196
SWIDTH 1000 0
DWIDTH 8 0
BBX 9 8 0 -1
BITMAP
1F80
0F00
0F00
1E00
1E00
3600
FE00
C600
ENDCHAR
STARTCHAR cyr-ie
ENCODING 197
SWIDTH 1000 0
DWIDTH 7 0
BBX 8 7 0 0
BITMAP
1E
33
66
7E
60
CC
78
ENDCHAR
STARTCHAR cyr-ef
ENCODING 198
SWIDTH 900 0
DWIDTH 9 0
BBX 11 10 0 -3
BITMAP
0FC0
1B60
36C0
36C0
36C0
6D80
3F00
0C00
1800
3C00
ENDCHAR
STARTCHAR cyr-ghe
ENCODING 199
SWIDTH 1000 0
DWIDTH 7 0
BBX 8 7 0 0
BITMAP
3F
1B
30
30
30
60
F0
ENDCHAR
STARTCHAR cyr-kha
ENCODING 200
SWIDTH 1286 0
DWIDTH 9 0
BBX 10 7 0 0
BITMAP
3FC0
1980
1E00
0C00
1E00
6600
FF00
ENDCHAR
STARTCHAR cyr-i
ENCODING 201
SWIDTH 1286 0
DWIDTH 9 0
BBX 10 7 0 0
BITMAP
3FC0
1980
3700
3F00
3B00
6600
FF00
ENDCHAR
STARTCHAR cyr-i-short
ENCODING 202
SWIDTH 1000 0
DWIDTH 9 0
BBX 11 9 0 0
BITMAP
0780
0000
3FC0
1980
3700
3F00
3B00
6600
FF00
ENDCHAR
STARTCHAR cyr-ka
ENCODING 203
SWIDTH 1143 0
DWIDTH 8 0
BBX 9 7 0 0
BITMAP
3F80
1B00
3C00
3C00
3600
6C00
FE00
ENDCHAR
STARTCHAR cyr-el
ENCODING 204
SWIDTH 1286 0
DWIDTH 9 0
BBX 10 7 0 0
BITMAP
1FC0
0D80
1B00
1B00
1B00
3600
EF00
ENDCHAR
STARTCHAR cyr-em
ENCODING 205
SWIDTH 1571 0
DWIDTH 11 0
BBX 12 7 0 0
BITMAP
3870
1CE0
39C0
3FC0
3FC0
6D80
FDC0
ENDCHAR
STARTCHAR cyr-en
ENCODING 206
SWIDTH 1286 0
DWIDTH 9 0
BBX 10 7 0 0
BITMAP
3FC0
1980
3300
3F00
3300
6600
FF00
ENDCHAR
STARTCHAR cyr-o
ENCODING 207
SWIDTH 1000 0
DWIDTH 7 0
BBX 8 7 0 0
BITMAP
1E
33
66
66
66
CC
78
ENDCHAR
STARTCHAR cyr-pe
ENCODING 208
SWIDTH 1286 0
DWIDTH 9 0
BBX 10 7 0 0
BITMAP
3FC0
1980
3300
3300
3300
6600
FF00
ENDCHAR
STARTCHAR cyr-ya
ENCODING 209
SWIDTH 1286 0
DWIDTH 9 0
BBX 10 7 0 0
BITMAP
0FC0
1980
3300
1F00
1B00
6600
EF00
ENDCHAR
STARTCHAR cyr-er
ENCODING 210
SWIDTH 800 0
DWIDTH 8 0
BBX 10 10 0 -3
BITMAP
1F80
0CC0
1980
1980
1980
3300
3E00
3000
6000
F000
ENDCHAR
STARTCHAR cyr-es
ENCODING 211
SWIDTH 1000 0
DWIDTH 7 0
BBX 8 7 0 0
BITMAP
1E
33
60
60
60
CC
78
ENDCHAR
STARTCHAR cyr-te
ENCODING 212
SWIDTH 1286 0
DWIDTH 9 0
BBX 10 7 0 0
BITMAP
3FC0
36C0
0C00
0C00
0C00
1800
3C00
ENDCHAR
STARTCHAR cyr-u
ENCODING 213
SWIDTH 900 0
DWIDTH 9 0
BBX 11 10 0 -3
BITMAP
1FE0
0CC0
1980
0F00
0F00
0C00
0C00
1800
F000
E000
ENDCHAR
STARTCHAR cyr-zhe
ENCODING 214
SWIDTH 1571 0
DWIDTH 11 0
BBX 12 7 0 0
BITMAP
3FF0
1B60
1F80
1F80
36C0
6D80
FFC0
ENDCHAR
STARTCHAR cyr-ve
ENCODING 215
SWIDTH 1143 0
DWIDTH 8 0
BBX 9 7 0 0
BITMAP
3F00
1980
3300
3E00
3300
6600
FC00
ENDCHAR
STARTCHAR cyr-ierik
ENCODING 216
SWIDTH 1143 0
DWIDTH 8 0
BBX 9 7 0 0
BITMAP
3C00
1800
3E00
3300
3300
6600
FC00
ENDCHAR
STARTCHAR cyr-iery
ENCODING 217
SWIDTH 1571 0
DWIDTH 11 0
BBX 12 7 0 0
BITMAP
3CF0
1860
3EC0
33C0
33C0
6780
FFC0
ENDCHAR
STARTCHAR cyr-z
ENCODING 218
SWIDTH 1000 0
DWIDTH 7 0
BBX 8 7 0 0
BITMAP
1E
33
06
1C
06
CC
78
ENDCHAR
STARTCHAR cyr-sha
ENCODING 219
SWIDTH 1857 0
DWIDTH 13 0
BBX 14 7 0 0
BITMAP
3FFC
1998
3330
3330
3330
6660
FFF0
ENDCHAR
STARTCHAR cyr-e-rev
ENCODING 220
SWIDTH 1000 0
DWIDTH 7 0
BBX 8 7 0 0
BITMAP
1E
33
06
1E
06
CC
78
ENDCHAR
STARTCHAR cyr-shcha
ENCODING 221
SWIDTH 1444 0
DWIDTH 13 0
BBX 15 9 0 -2
BITMAP
1FFE
1998
1998
1998
3330
3330
7FF8
0030
0030
ENDCHAR
STARTCHAR cyr-che
ENCODING 222
SWIDTH 1286 0
DWIDTH 9 0
BBX 10 7 0 0
BITMAP
3FC0
1980
3300
1F00
0300
0600
0F00
ENDCHAR
STARTCHAR cyr-ier
ENCODING 223
SWIDTH 1286 0
DWIDTH 9 0
BBX 10 7 0 0
BITMAP
3E00
3C00
7F00
1980
1980
3300
7E00
ENDCHAR
STARTCHAR cyr-Yu
ENCODING 224
SWIDTH 1400 0
DWIDTH 14 0
BBX 16 10 0 0
BITMAP
1E7C
0CC6
1B06
1B06
1F06
360C
360C
360C
6630
F3E0
ENDCHAR
STARTCHAR cyr-A
ENCODING 225
SWIDTH 1000 0
DWIDTH 10 0
BBX 13 10 -1 0
BITMAP
0180
0180
0780
0780
0CC0
1980
1F80
30C0
6180
F3C0
ENDCHAR
STARTCHAR cyr-Be
ENCODING 226
SWIDTH 900 0
DWIDTH 9 0
BBX 11 10 0 0
BITMAP
1FE0
0C60
1800
1800
1F80
3180
3180
3180
6300
FE00
ENDCHAR
STARTCHAR cyr-Tse
ENCODING 227
SWIDTH 833 0
DWIDTH 10 0
BBX 13 12 0 -2
BITMAP
0F78
0C60
0C60
0C60
18C0
18C0
18C0
3180
3180
7FC0
0180
0180
ENDCHAR
STARTCHAR cyr-De
ENCODING 228
SWIDTH 833 0
DWIDTH 10 0
BBX 13 12 0 -2
BITMAP
07F8
0660
0660
0660
0CC0
0CC0
0CC0
1980
3180
7FC0
C180
C180
ENDCHAR
STARTCHAR cyr-Ie
ENCODING 229
SWIDTH 800 0
DWIDTH 8 0
BBX 10 10 0 0
BITMAP
1FC0
0CC0
1800
1B00
1F00
3600
3000
3000
6600
FE00
ENDCHAR
STARTCHAR cyr-Ef
ENCODING 230
SWIDTH 1100 0
DWIDTH 11 0
BBX 13 10 0 0
BITMAP
07E0
0DB0
3330
3330
3330
36C0
1F80
0600
0C00
1E00
ENDCHAR
STARTCHAR cyr-Ghe
ENCODING 231
SWIDTH 900 0
DWIDTH 9 0
BBX 11 10 0 0
BITMAP
1FE0
0C60
1800
1800
1800
3000
3000
3000
6000
F000
ENDCHAR
STARTCHAR cyr-Kha
ENCODING 232
SWIDTH 1200 0
DWIDTH 12 0
BBX 14 10 0 0
BITMAP
1E3C
0C18
0C60
06C0
0380
0700
0D80
18C0
60C0
F1E0
ENDCHAR
STARTCHAR cyr-I
ENCODING 233
SWIDTH 1000 0
DWIDTH 10 0
BBX 12 10 0 0
BITMAP
1EF0
0C60
19C0
1BC0
1BC0
3D80
3D80
3980
6300
F780
ENDCHAR
STARTCHAR cyr-I-short
ENCODING 234
SWIDTH 833 0
DWIDTH 10 0
BBX 13 12 0 0
BITMAP
01C0
0000
1EF0
0C60
19C0
1BC0
1BC0
3D80
3D80
3980
6300
F780
ENDCHAR
STARTCHAR cyr-Ka
ENCODING 235
SWIDTH 900 0
DWIDTH 9 0
BBX 11 10 0 0
BITMAP
1FE0
0CC0
1B00
1B00
1E00
3600
3600
3300
6600
FF00
ENDCHAR
STARTCHAR cyr-El
ENCODING 236
SWIDTH 1000 0
DWIDTH 10 0
BBX 12 10 0 0
BITMAP
0FF0
0660
0CC0
0CC0
0CC0
1980
1980
1980
3300
E780
ENDCHAR
STARTCHAR cyr-Em
ENCODING 237
SWIDTH 1100 0
DWIDTH 11 0
BBX 13 10 0 0
BITMAP
1C38
0E70
1CE0
1CE0
1FE0
3FC0
3FC0
36C0
6D80
FFC0
ENDCHAR
STARTCHAR cyr-En
ENCODING 238
SWIDTH 1000 0
DWIDTH 10 0
BBX 12 10 0 0
BITMAP
1EF0
0C60
18C0
18C0
1FC0
3180
3180
3180
6300
F780
ENDCHAR
STARTCHAR cyr-O
ENCODING 239
SWIDTH 1000 0
DWIDTH 10 0
BBX 12 10 0 0
BITMAP
07C0
0C60
3060
3060
3060
60C0
60C0
60C0
6300
3E00
ENDCHAR
STARTCHAR cyr-Pe
ENCODING 240
SWIDTH 1000 0
DWIDTH 10 0
BBX 12 10 0 0
BITMAP
1FF0
0C60
18C0
18C0
18C0
3180
3180
3180
6300
F780
ENDCHAR
STARTCHAR cyr-Ya
ENCODING 241
SWIDTH 1100 0
DWIDTH 11 0
BBX 12 10 1 0
BITMAP
07F0
0C60
18C0
18C0
18C0
1F80
0D80
1980
6300
E780
ENDCHAR
STARTCHAR cyr-Er
ENCODING 242
SWIDTH 900 0
DWIDTH 9 0
BBX 11 10 0 0
BITMAP
1FC0
0C60
18C0
18C0
18C0
3F00
3000
3000
6000
F000
ENDCHAR
STARTCHAR cyr-Es
ENCODING 243
SWIDTH 1000 0
DWIDTH 10 0
BBX 12 10 0 0
BITMAP
07F0
0C70
3060
3000
3000
6000
6000
60C0
6300
3E00
ENDCHAR
STARTCHAR cyr-Te
ENCODING 244
SWIDTH 1100 0
DWIDTH 11 0
BBX 13 10 0 0
BITMAP
1FF8
1998
0300
0300
0300
0600
0600
0600
0C00
1E00
ENDCHAR
STARTCHAR cyr-U
ENCODING 245
SWIDTH 1200 0
DWIDTH 12 0
BBX 14 10 0 0
BITMAP
1E3C
0C18
0C60
0660
06C0
0780
0300
0300
0C00
7800
ENDCHAR
STARTCHAR cyr-Zhe
ENCODING 246
SWIDTH 1300 0
DWIDTH 13 0
BBX 15 10 0 0
BITMAP
1FFE
0CCC
0DB0
0DB0
07E0
1B60
1B60
3330
6660
FFF0
ENDCHAR
STARTCHAR cyr-Ve
ENCODING 247
SWIDTH 900 0
DWIDTH 9 0
BBX 11 10 0 0
BITMAP
1FC0
0C60
18C0
18C0
1F80
3180
3180
3180
6300
FE00
ENDCHAR
STARTCHAR cyr-Ierik
ENCODING 248
SWIDTH 900 0
DWIDTH 9 0
BBX 11 10 0 0
BITMAP
1E00
0C00
1800
1800
1F80
3180
3180
3180
6300
FE00
ENDCHAR
STARTCHAR cyr-Iery
ENCODING 249
SWIDTH 1200 0
DWIDTH 12 0
BBX 14 10 0 0
BITMAP
1E3C
0C18
1830
1830
1FB0
31E0
31E0
31E0
63C0
FFE0
ENDCHAR
STARTCHAR cyr-Ze
ENCODING 250
SWIDTH 800 0
DWIDTH 8 0
BBX 10 10 0 0
BITMAP
0F80
18C0
3180
0180
0F00
0300
0300
6300
C600
7C00
ENDCHAR
STARTCHAR cyr-Sha
ENCODING 251
SWIDTH 1300 0
DWIDTH 13 0
BBX 15 10 0 0
BITMAP
1FFE
0CCC
1998
1998
1998
3330
3330
3330
6660
FFF0
ENDCHAR
STARTCHAR cyr-E-rev
ENCODING 252
SWIDTH 900 0
DWIDTH 9 0
BBX 11 10 0 0
BITMAP
0FC0
1860
30C0
00C0
0FC0
0180
0180
6180
C300
7E00
ENDCHAR
STARTCHAR cyr-Shcha
ENCODING 253
SWIDTH 1083 0
DWIDTH 13 0
BBX 16 12 0 -2
BITMAP
0FFF
0CCC
0CCC
0CCC
1998
1998
1998
3330
3330
7FF8
0030
0030
ENDCHAR
STARTCHAR cyr-Che
ENCODING 254
SWIDTH 1000 0
DWIDTH 10 0
BBX 12 10 0 0
BITMAP
1EF0
0C60
18C0
18C0
18C0
1F80
0180
0180
0300
0780
ENDCHAR
STARTCHAR cyr-Ier
ENCODING 255
SWIDTH 1100 0
DWIDTH 11 0
BBX 13 10 0 0
BITMAP
1F80
1B00
3600
0600
07E0
0C60
0C60
0C60
18C0
3F80
ENDCHAR
ENDFONT
